<?xml version="1.0" encoding="UTF-8"?>
<svg id="Layer_1" data-name="Layer 1" xmlns="http://www.w3.org/2000/svg" viewBox="0 0 865.5 866.5">
  <path d="M860.75,687.98c-15.97,79.17-94.6,157.8-173.77,173.77-116.01,23.41-220.69-42.3-258.01-141.08-6.74-17.84-23.77-29.68-42.84-29.68H212.21c-13.24,0-25.9,5.67-34.52,15.72-18.94,22.08-47.24,35.89-78.75,35.26C44.78,740.9,.76,696.59,0,642.43c-.78-56.44,44.73-102.43,100.99-102.43,30.62,0,58.06,13.63,76.58,35.16,8.67,10.08,21.33,15.84,34.62,15.84h173.6c19.1,0,36.39-11.69,43.14-29.56,1.76-4.67,3.67-9.26,5.73-13.77,7.86-17.26,4.01-37.6-9.39-51.02L144.18,215.04c-9.35-9.37-22.3-14.32-35.5-13.32-2.41,.18-4.84,.28-7.3,.29C46.74,202.2,.49,156.54,0,101.91-.49,45.41,45.41-.49,101.91,0s100.39,46.83,100.09,101.57c-.01,2.45-.11,4.88-.3,7.28-1.01,13.2,3.91,26.16,13.26,35.53L496.05,426c13.4,13.43,33.75,17.3,51.03,9.47,4.43-2.01,8.94-3.87,13.52-5.6,17.78-6.69,29.4-23.88,29.4-42.87V212.21c0-13.24-5.67-25.9-15.72-34.52-22.08-18.94-35.89-47.24-35.26-78.75C540.1,44.78,584.41,.76,638.57,0c56.44-.78,102.43,44.73,102.43,100.99,0,30.62-13.63,58.06-35.16,76.58-10.08,8.67-15.84,21.33-15.84,34.62v174.93c0,19.07,11.84,36.1,29.68,42.84,98.78,37.32,164.48,141.99,141.08,258.01Z"/>
</svg>